<svg width="33" height="31" viewBox="0 0 33 31" fill="none" xmlns="http://www.w3.org/2000/svg">
<g clip-path="url(#clip0_1_266)">
<path d="M12.4854 6.53979H9.84722C9.14752 6.53979 8.47649 6.80175 7.98173 7.26805C7.48697 7.73435 7.20901 8.36678 7.20901 9.02622V23.9449C7.20901 24.6043 7.48697 25.2367 7.98173 25.703C8.47649 26.1693 9.14752 26.4313 9.84722 26.4313H23.0382C23.7379 26.4313 24.409 26.1693 24.9037 25.703C25.3985 25.2367 25.6764 24.6043 25.6764 23.9449V9.02622C25.6764 8.36678 25.3985 7.73435 24.9037 7.26805C24.409 6.80175 23.7379 6.53979 23.0382 6.53979H20.4" stroke="#01C38E" stroke-width="1.66667" stroke-linecap="round" stroke-linejoin="round"/>
<path d="M12.4854 6.53979C12.4854 5.88035 12.7634 5.24791 13.2581 4.78161C13.7529 4.31532 14.4239 4.05335 15.1236 4.05335H17.7618C18.4615 4.05335 19.1326 4.31532 19.6273 4.78161C20.1221 5.24791 20.4 5.88035 20.4 6.53979C20.4 7.19923 20.1221 7.83167 19.6273 8.29797C19.1326 8.76426 18.4615 9.02623 17.7618 9.02623H15.1236C14.4239 9.02623 13.7529 8.76426 13.2581 8.29797C12.7634 7.83167 12.4854 7.19923 12.4854 6.53979Z" stroke="#01C38E" stroke-width="1.66667" stroke-linecap="round" stroke-linejoin="round"/>
<path d="M19.0809 13.9991H15.7832C15.2584 13.9991 14.7551 14.1956 14.384 14.5453C14.013 14.895 13.8045 15.3693 13.8045 15.8639C13.8045 16.3585 14.013 16.8328 14.384 17.1826C14.7551 17.5323 15.2584 17.7288 15.7832 17.7288H17.1023C17.627 17.7288 18.1303 17.9252 18.5014 18.275C18.8724 18.6247 19.0809 19.099 19.0809 19.5936C19.0809 20.0882 18.8724 20.5625 18.5014 20.9122C18.1303 21.2619 17.627 21.4584 17.1023 21.4584H13.8045" stroke="#01C38E" stroke-width="1.66667" stroke-linecap="round" stroke-linejoin="round"/>
<path d="M16.4427 21.4584V22.7016M16.4427 12.7559V13.9991" stroke="#01C38E" stroke-width="1.66667" stroke-linecap="round" stroke-linejoin="round"/>
</g>
<defs>
<clipPath id="clip0_1_266">
<rect width="31.6585" height="29.8373" fill="white" transform="translate(0.613495 0.323692)"/>
</clipPath>
</defs>
</svg>


