<svg width="33" height="30" viewBox="0 0 33 30" fill="none" xmlns="http://www.w3.org/2000/svg">
<g clip-path="url(#clip0_1_288)">
<path d="M8.52811 6.32821C8.52811 5.66876 8.80606 5.03633 9.30082 4.57003C9.79558 4.10373 10.4666 3.84177 11.1663 3.84177H21.7191C22.4188 3.84177 23.0899 4.10373 23.5846 4.57003C24.0794 5.03633 24.3573 5.66876 24.3573 6.32821V23.7333C24.3573 24.3927 24.0794 25.0252 23.5846 25.4914C23.0899 25.9577 22.4188 26.2197 21.7191 26.2197H11.1663C10.4666 26.2197 9.79558 25.9577 9.30082 25.4914C8.80606 25.0252 8.52811 24.3927 8.52811 23.7333V6.32821Z" stroke="#01C38E" stroke-width="1.66667" stroke-linecap="round" stroke-linejoin="round"/>
<path d="M15.1236 5.08499H17.7618" stroke="#01C38E" stroke-width="1.66667" stroke-linecap="round" stroke-linejoin="round"/>
<path d="M16.4427 21.2468V21.2593" stroke="#01C38E" stroke-width="1.66667" stroke-linecap="round" stroke-linejoin="round"/>
</g>
<defs>
<clipPath id="clip0_1_288">
<rect width="31.6585" height="29.8373" fill="white" transform="translate(0.613495 0.112114)"/>
</clipPath>
</defs>
</svg>



