<svg width="35" height="35" viewBox="0 0 35 35" fill="none" xmlns="http://www.w3.org/2000/svg">
<g clip-path="url(#clip0_1_25)">
<path d="M24.7917 7.29166H27.7083C28.4819 7.29166 29.2238 7.59895 29.7707 8.14593C30.3177 8.69291 30.625 9.43477 30.625 10.2083V24.7917C30.625 25.5652 30.3177 26.3071 29.7707 26.854C29.2238 27.401 28.4819 27.7083 27.7083 27.7083H24.7917" stroke="white" stroke-width="3.33333" stroke-linecap="round" stroke-linejoin="round"/>
<path d="M10.2083 27.7083H7.29167C6.51812 27.7083 5.77625 27.401 5.22927 26.854C4.68229 26.3071 4.375 25.5652 4.375 24.7917V10.2083C4.375 9.43477 4.68229 8.69291 5.22927 8.14593C5.77625 7.59895 6.51812 7.29166 7.29167 7.29166H10.2083" stroke="white" stroke-width="3.33333" stroke-linecap="round" stroke-linejoin="round"/>
<path d="M11.6667 17.5C11.6667 19.0471 12.2813 20.5308 13.3752 21.6248C14.4692 22.7187 15.9529 23.3333 17.5 23.3333C19.0471 23.3333 20.5308 22.7187 21.6248 21.6248C22.7188 20.5308 23.3333 19.0471 23.3333 17.5C23.3333 15.9529 22.7188 14.4692 21.6248 13.3752C20.5308 12.2812 19.0471 11.6667 17.5 11.6667C15.9529 11.6667 14.4692 12.2812 13.3752 13.3752C12.2813 14.4692 11.6667 15.9529 11.6667 17.5Z" stroke="white" stroke-width="3.33333" stroke-linecap="round" stroke-linejoin="round"/>
</g>
<defs>
<clipPath id="clip0_1_25">
<rect width="35" height="35" fill="white"/>
</clipPath>
</defs>
</svg>




