<svg width="47" height="48" viewBox="0 0 47 48" fill="none" xmlns="http://www.w3.org/2000/svg">
<g clip-path="url(#clip0_1_57)">
<path d="M15.8889 14.2778C15.8889 16.3406 16.7083 18.3189 18.1669 19.7775C19.6256 21.2361 21.6039 22.0556 23.6667 22.0556C25.7295 22.0556 27.7078 21.2361 29.1664 19.7775C30.625 18.3189 31.4444 16.3406 31.4444 14.2778C31.4444 12.215 30.625 10.2367 29.1664 8.77806C27.7078 7.31944 25.7295 6.5 23.6667 6.5C21.6039 6.5 19.6256 7.31944 18.1669 8.77806C16.7083 10.2367 15.8889 12.215 15.8889 14.2778Z" stroke="white" stroke-width="3.33333" stroke-linecap="round" stroke-linejoin="round"/>
<path d="M12 41.5V37.6111C12 35.5483 12.8194 33.57 14.2781 32.1114C15.7367 30.6528 17.715 29.8333 19.7778 29.8333H27.5556C29.6184 29.8333 31.5967 30.6528 33.0553 32.1114C34.5139 33.57 35.3333 35.5483 35.3333 37.6111V41.5" stroke="white" stroke-width="3.33333" stroke-linecap="round" stroke-linejoin="round"/>
</g>
<defs>
<clipPath id="clip0_1_57">
<rect width="46.6667" height="46.6667" fill="white" transform="translate(0.333328 0.666656)"/>
</clipPath>
</defs>
</svg>

