<svg width="38" height="36" viewBox="0 0 38 36" fill="none" xmlns="http://www.w3.org/2000/svg">
<path d="M30.4572 10.7153C29.1894 8.92695 27.4723 7.46153 25.4587 6.44937C23.445 5.43721 21.1972 4.90967 18.9151 4.91365C16.6369 4.91234 14.3936 5.44121 12.3844 6.4533C10.3752 7.4654 8.6622 8.9294 7.39755 10.7153" stroke="#01C38E" stroke-width="1.66667" stroke-linecap="round" stroke-linejoin="round"/>
<path d="M18.1456 4.91365C16.9462 6.72465 16.0015 8.67488 15.3354 10.7153" stroke="#01C38E" stroke-width="1.66667" stroke-linecap="round" stroke-linejoin="round"/>
<path d="M19.6845 4.91365C20.885 6.7245 21.8307 8.67473 22.4977 10.7153" stroke="#01C38E" stroke-width="1.66667" stroke-linecap="round" stroke-linejoin="round"/>
<path d="M30.4572 25.2196C29.1894 27.0079 27.4723 28.4734 25.4587 29.4855C23.445 30.4977 21.1972 31.0252 18.9151 31.0212C16.6369 31.0226 14.3936 30.4937 12.3844 29.4816C10.3752 28.4695 8.6622 27.0055 7.39755 25.2196" stroke="#01C38E" stroke-width="1.66667" stroke-linecap="round" stroke-linejoin="round"/>
<path d="M18.1456 31.0212C16.9462 29.2102 16.0015 27.26 15.3354 25.2196" stroke="#01C38E" stroke-width="1.66667" stroke-linecap="round" stroke-linejoin="round"/>
<path d="M19.6845 31.0212C20.885 29.2104 21.8307 27.2602 22.4977 25.2196" stroke="#01C38E" stroke-width="1.66667" stroke-linecap="round" stroke-linejoin="round"/>
<path d="M3.52554 15.0666L5.0645 20.8683L7.37292 15.0666L9.68135 20.8683L11.2203 15.0666" stroke="#01C38E" stroke-width="1.66667" stroke-linecap="round" stroke-linejoin="round"/>
<path d="M26.6098 15.0666L28.1488 20.8683L30.4572 15.0666L32.7656 20.8683L34.3046 15.0666" stroke="#01C38E" stroke-width="1.66667" stroke-linecap="round" stroke-linejoin="round"/>
<path d="M15.0677 15.0666L16.6066 20.8683L18.9151 15.0666L21.2235 20.8683L22.7625 15.0666" stroke="#01C38E" stroke-width="1.66667" stroke-linecap="round" stroke-linejoin="round"/>
</svg>

